<?xml version="1.0" encoding="utf-8"?>
<svg version="1.1" xmlns:xlink="http://www.w3.org/1999/xlink" width="40px" height="31px" xmlns="http://www.w3.org/2000/svg">
  <g transform="matrix(1 0 0 1 -1310 -19 )">
    <path d="M 16.275510204081634 28.348046874999998  C 16.258503401360546 28.436848958333336  16.275510204081634 28.545833333333334  16.3265306122449 28.675  C 16.3265306122449 28.739583333333336  16.335034013605444 28.901041666666664  16.35204081632653 29.159375  C 16.36904761904762 29.417708333333334  16.37329931972789 29.631640625  16.36479591836735 29.801171874999998  C 16.356292517006807 29.970703125  16.330782312925173 30.160416666666666  16.288265306122447 30.3703125  C 16.24574829931973 30.580208333333335  16.160714285714285 30.737630208333336  16.033163265306122 30.842578125  C 15.90561224489796 30.947526041666666  15.731292517006805 31  15.510204081632653 31  L 7.346938775510204 31  C 5.323129251700681 31  3.592687074829932 30.317838541666664  2.1556122448979593 28.953515624999998  C 0.7185374149659863 27.589192708333336  0 25.946354166666666  0 24.025000000000002  L 0 6.975  C 0 5.053645833333328  0.7185374149659863 3.4108072916666656  2.1556122448979593 2.046484375000001  C 3.592687074829932 0.682161458333329  5.323129251700681 0  7.346938775510204 0  L 15.510204081632653 0  C 15.731292517006805 0  15.92261904761905 0.07669270833332897  16.084183673469386 0.2300781250000007  C 16.24574829931973 0.3834635416666655  16.3265306122449 0.5651041666666655  16.3265306122449 0.7750000000000007  C 16.3265306122449 0.8395833333333304  16.335034013605444 1.0010416666666648  16.35204081632653 1.2593750000000008  C 16.36904761904762 1.5177083333333297  16.37329931972789 1.7316406250000014  16.36479591836735 1.9011718749999986  C 16.356292517006807 2.070703124999999  16.330782312925173 2.2604166666666656  16.288265306122447 2.470312500000001  C 16.24574829931973 2.680208333333329  16.160714285714285 2.8376302083333305  16.033163265306122 2.9425781250000016  C 15.90561224489796 3.0475260416666656  15.731292517006805 3.099999999999999  15.510204081632653 3.099999999999999  L 7.346938775510204 3.099999999999999  C 6.224489795918368 3.099999999999999  5.263605442176872 3.479427083333328  4.464285714285714 4.23828125  C 3.6649659863945585 4.997135416666665  3.265306122448979 5.909375000000002  4 6.975  L 4 24.025000000000002  C 3.265306122448979 25.090625  3.6649659863945585 26.002864583333327  4.464285714285714 26.76171875  C 5.263605442176872 27.520572916666666  6.224489795918368 27.900000000000002  7.346938775510204 27.900000000000002  L 14.693877551020408 27.900000000000002  L 14.974489795918366 27.900000000000002  L 15.306122448979592 27.900000000000002  C 15.306122448979592 27.900000000000002  15.40391156462585 27.908072916666665  15.599489795918366 27.924218749999998  C 15.795068027210885 27.940364583333334  15.892857142857142 27.964583333333334  15.892857142857142 27.996875  C 15.892857142857142 28.029166666666665  15.960884353741498 28.073567708333336  16.096938775510203 28.130078125  C 16.232993197278912 28.186588541666666  16.292517006802722 28.259244791666664  16.275510204081634 28.348046874999998  Z M 39.515306122448976 14.41015625  C 39.83843537414966 14.716927083333333  40 15.080208333333333  40 15.5  C 40 15.919791666666663  39.83843537414966 16.283072916666665  39.515306122448976 16.58984375  L 25.637755102040817 29.76484375  C 25.314625850340136 30.071614583333336  24.931972789115648 30.224999999999998  24.48979591836735 30.224999999999998  C 24.04761904761905 30.224999999999998  23.66496598639456 30.071614583333336  23.341836734693878 29.76484375  C 23.0187074829932 29.458072916666666  22.857142857142854 29.094791666666666  22.857142857142854 28.675  L 22.857142857142854 21.7  L 11.428571428571427 21.7  C 10.986394557823129 21.7  10.60374149659864 21.546614583333334  10.28061224489796 21.239843750000002  C 9.957482993197278 20.933072916666664  9.795918367346939 20.569791666666664  9.795918367346939 20.150000000000002  L 9.795918367346939 10.85  C 9.795918367346939 10.43020833333333  9.957482993197278 10.06692708333333  10.28061224489796 9.76015625  C 10.60374149659864 9.453385416666666  10.986394557823129 9.3  11.428571428571427 9.3  L 22.857142857142854 9.3  L 22.857142857142854 2.3249999999999984  C 22.857142857142854 1.9052083333333283  23.0187074829932 1.5419270833333283  23.341836734693878 1.2351562499999986  C 23.66496598639456 0.9283854166666655  24.04761904761905 0.7750000000000007  24.48979591836735 0.7750000000000007  C 24.931972789115648 0.7750000000000007  25.314625850340136 0.9283854166666655  25.637755102040817 1.2351562499999986  L 39.515306122448976 14.41015625  Z " fill-rule="nonzero" fill="#ffffff" stroke="none" transform="matrix(1 0 0 1 1310 19 )" />
  </g>
</svg>